<svg width="158" height="33" viewBox="0 0 158 33" fill="none" xmlns="http://www.w3.org/2000/svg">
<rect width="158" height="33" fill="#FF0000" fill-opacity="0.55"/>
<path d="M18 12V11H25V12H18ZM17 16V12H18V16H17ZM25 16V12H26V16H25ZM16 21V20H21V17H18V16H25V17H22V20H27V21H16ZM29 14V11H30V13H38V14H29ZM28 16V15H39V16H28ZM29 22V19H37V18H29V17H38V20H30V21H38V22H29ZM43.9961 17V16H48.9961V15H44.9961V11H45.9961V12H52.9961V11H53.9961V15H49.9961V16H54.9961V17H43.9961ZM45.9961 14H52.9961V13H45.9961V14ZM44.9961 22V18H45.9961V21H53.9961V22H44.9961ZM59.9922 12V11H64.9922V15H66.9922V11H67.9922V22H66.9922V16H63.9922V12H59.9922ZM68.9922 22V11H69.9922V22H68.9922ZM62.9922 18V16H63.9922V18H62.9922ZM61.9922 19V18H62.9922V19H61.9922ZM59.9922 20V19H61.9922V20H59.9922ZM76.9883 17V16H78.9883V12H76.9883V11H85.9883V12H83.9883V16H85.9883V17H76.9883ZM79.9883 16H82.9883V12H79.9883V16ZM75.9883 21V20H86.9883V21H75.9883ZM87.9883 21V20H92.9883V18H88.9883V14H96.9883V12H88.9883V11H97.9883V15H89.9883V17H97.9883V18H93.9883V20H98.9883V21H87.9883ZM100.988 12V11H104.988V12H100.988ZM107.988 22V11H108.988V13H110.988V14H108.988V17H110.988V18H108.988V22H107.988ZM99.9883 19V12H100.988V19H99.9883ZM104.988 19V12H105.988V19H104.988ZM100.988 20V19H104.988V20H100.988ZM111.988 17V16H120.988V12H112.988V11H121.988V16H122.988V17H117.988V22H116.988V17H111.988ZM124.988 12V11H128.988V12H124.988ZM131.988 22V11H132.988V13H134.988V14H132.988V17H134.988V18H132.988V22H131.988ZM123.988 19V12H124.988V19H123.988ZM128.988 19V12H129.988V19H128.988ZM124.988 20V19H128.988V20H124.988ZM136.988 12V11H139.988V12H136.988ZM135.988 14V12H136.988V14H135.988ZM139.988 15V12H140.988V15H139.988ZM138.988 16V15H139.988V16H138.988ZM137.988 18V16H138.988V18H137.988ZM137.988 21V19H138.988V21H137.988Z" fill="white"/>
</svg>
