<svg width="199" height="33" viewBox="0 0 199 33" fill="none" xmlns="http://www.w3.org/2000/svg">
<rect width="199" height="33" fill="white"/>
<path d="M18 12V11H22V12H18ZM25 22V11H26V15H28V16H26V22H25ZM17 19V12H18V19H17ZM22 19V12H23V19H22ZM18 20V19H22V20H18ZM33.9961 12V11H37.9961V12H33.9961ZM40.9961 22V11H41.9961V13H43.9961V14H41.9961V17H43.9961V18H41.9961V22H40.9961ZM32.9961 19V12H33.9961V19H32.9961ZM37.9961 19V12H38.9961V19H37.9961ZM33.9961 20V19H37.9961V20H33.9961ZM44.9961 17V16H53.9961V12H45.9961V11H54.9961V16H55.9961V17H50.9961V22H49.9961V17H44.9961ZM59.9961 14V11H60.9961V14H59.9961ZM62.9961 14V13H65.9961V11H66.9961V18H65.9961V14H62.9961ZM58.9961 16V14H59.9961V16H58.9961ZM60.9961 16V14H61.9961V16H60.9961ZM56.9961 17V16H58.9961V17H56.9961ZM61.9961 17V16H63.9961V17H61.9961ZM57.9961 22V18H58.9961V21H66.9961V22H57.9961ZM73.9961 13V11H74.9961V13H73.9961ZM72.9961 14V13H73.9961V14H72.9961ZM74.9961 14V13H75.9961V14H74.9961ZM71.9961 15V14H72.9961V15H71.9961ZM75.9961 15V14H76.9961V15H75.9961ZM69.9961 16V15H71.9961V16H69.9961ZM76.9961 16V15H78.9961V16H76.9961ZM68.9961 18V17H79.9961V18H74.9961V22H73.9961V18H68.9961ZM80.9961 13V12H82.9961V11H83.9961V12H86.9961V13H85.9961V14H81.9961V13H80.9961ZM88.9961 18V11H89.9961V14H91.9961V15H89.9961V18H88.9961ZM80.9961 16V14H81.9961V16H80.9961ZM85.9961 16V14H86.9961V16H85.9961ZM81.9961 17V16H85.9961V17H81.9961ZM81.9961 22V18H82.9961V21H89.9961V22H81.9961ZM92.9961 20V11H97.9961V12H93.9961V15H96.9961V16H93.9961V19H98.9961V20H92.9961ZM97.9961 16V15H99.9961V11H100.996V22H99.9961V16H97.9961ZM101.996 22V11H102.996V22H101.996ZM138.988 14V11H139.988V14H138.988ZM143.988 17V11H144.988V13H145.988V11H146.988V17H145.988V14H144.988V17H143.988ZM137.988 16V14H138.988V16H137.988ZM139.988 16V14H140.988V16H139.988ZM136.988 17V16H137.988V17H136.988ZM140.988 17V16H141.988V17H140.988ZM138.988 19V18H145.988V19H138.988ZM137.988 21V19H138.988V21H137.988ZM145.988 21V19H146.988V21H145.988ZM138.988 22V21H145.988V22H138.988ZM148.988 12V11H154.988V13H157.988V11H158.988V22H157.988V17H154.988V16H157.988V14H154.988V15H153.988V12H148.988ZM152.988 17V15H153.988V17H152.988ZM151.988 18V17H152.988V18H151.988ZM150.988 19V18H151.988V19H150.988ZM148.988 20V19H150.988V20H148.988ZM161.988 21V20H162.988V21H161.988ZM165.984 21V20H166.984V21H165.984ZM169.98 14V13H173.98V12H174.98V13H178.98V14H169.98ZM170.98 16V15H177.98V16H170.98ZM169.98 19V16H170.98V19H169.98ZM177.98 19V16H178.98V19H177.98ZM170.98 20V19H177.98V20H170.98Z" fill="black"/>
<path d="M108.992 12V11H114.992V14H113.992V12H108.992ZM116.992 17V11H117.992V13H119.992V14H117.992V17H116.992ZM112.992 15V14H113.992V15H112.992ZM110.992 16V15H112.992V16H110.992ZM108.992 17V16H110.992V17H108.992ZM109.992 22V18H117.992V22H109.992ZM110.992 21H116.992V19H110.992V21ZM120.992 12V11H127.992V12H124.992V14H123.992V12H120.992ZM126.992 14V13H129.992V11H130.992V17H129.992V14H126.992ZM122.992 16V14H123.992V16H122.992ZM124.992 16V14H125.992V16H124.992ZM120.992 17V16H122.992V17H120.992ZM125.992 17V16H127.992V17H125.992ZM122.992 19V18H129.992V19H122.992ZM121.992 21V19H122.992V21H121.992ZM129.992 21V19H130.992V21H129.992ZM122.992 22V21H129.992V22H122.992Z" fill="#FF0000"/>
</svg>
