<svg width="127" height="32" viewBox="0 0 127 32" fill="none" xmlns="http://www.w3.org/2000/svg">
<path d="M11.4238 9.75085C12.9633 9.60187 14.5027 9.45289 16.7607 9.20233C19.0187 8.95178 21.9486 8.60416 23.8304 8.37544C25.7121 8.14671 26.457 8.04739 27.9769 7.94507" stroke="white" stroke-width="4" stroke-linecap="round"/>
<path d="M20.9038 9.14917C20.6555 10.341 20.4072 11.5328 20.2793 14.7539C20.1514 17.975 20.1514 23.1892 20.1514 28.5614" stroke="white" stroke-width="4" stroke-linecap="round"/>
<path d="M45.156 14.5727C44.6297 14.1683 41.6635 12.1745 37.7556 10.7162C36.3326 10.1852 35.3752 10.3449 34.9472 10.3955C34.5339 10.4443 34.1902 10.9748 33.874 11.657C32.9086 13.7404 33.5744 17.1975 33.9212 18.6016C34.1073 19.355 34.7361 20.4272 35.5707 21.8634C36.6074 23.3198 37.8579 24.6764 39.6777 26.0908C40.8302 26.8987 42.4478 27.8895 44.4207 29.0328" stroke="white" stroke-width="4" stroke-linecap="round"/>
<path d="M46.0751 14.6952C46.1358 14.289 47.1486 12.5433 48.5928 10.8905C49.0354 10.3839 49.6669 10.2842 50.1969 10.1923C51.4043 9.98296 53.1152 11.4025 54.007 12.596C55.3347 14.3729 54.6532 16.4647 54.4399 17.9674C54.2107 19.5825 53.6128 20.5932 52.7372 22.0524C52.0143 23.2571 50.1521 25.0979 48.927 26.2121C48.0199 27.0071 46.9145 28.0292 46.0276 28.9271C45.811 29.1535 45.6695 29.3355 45.3398 29.7068" stroke="white" stroke-width="4" stroke-linecap="round"/>
<path d="M63.3516 9.01392C62.9917 12.9539 62.8596 16.8625 62.9875 20.0134C63.1564 21.8937 63.2803 23.4599 63.3426 25.0539C63.3782 25.7085 63.422 26.0498 63.4362 26.7394" stroke="white" stroke-width="4" stroke-linecap="round"/>
<path d="M64.3552 7.96953C65.8893 8.07217 69.0037 8.73029 71.2147 10.294C73.3708 11.8189 74.8807 15.3138 75.892 18.8152C76.8471 22.1218 75.7716 24.3359 74.6389 25.7884C72.8906 26.9178 69.4774 27.9656 65.3928 28.4676C64.5635 28.5446 64.0329 28.6085 63.4863 28.6745" stroke="white" stroke-width="4" stroke-linecap="round"/>
<path d="M83.1707 24.6402C83.3129 24.4668 85.2294 20.052 88.3995 12.8833C90.2495 8.69975 91.5512 7.27497 92.2953 7.29738C93.8527 7.3443 95.5169 12.8792 98.0504 18.9794C99.0375 21.5275 99.4186 22.9639 99.6344 23.9011C99.8502 24.8383 99.8892 25.2328 100.228 26.2134" stroke="white" stroke-width="4" stroke-linecap="round"/>
<path d="M88.7373 17.4495L96.9866 16.6339" stroke="white" stroke-width="2.50229" stroke-linecap="round"/>
<path d="M105.738 8.47876C106.134 9.0249 106.529 9.57103 106.868 10.0728C107.206 10.5746 107.476 11.0155 107.768 11.4477C108.059 11.8798 108.364 12.2899 109.244 13.2402" stroke="white" stroke-width="4" stroke-linecap="round"/>
<path d="M116.716 9.19108C114.371 11.2874 112.783 12.7391 112.085 13.4102C111.768 13.7096 111.526 13.9254 111.281 14.1445C111.036 14.3636 110.795 14.5794 110.546 14.8017" stroke="white" stroke-width="4" stroke-linecap="round"/>
<path d="M110.585 14.1086C110.583 14.1413 110.581 14.1739 110.602 16.1408C110.624 18.1077 110.668 22.0079 110.867 26.8289" stroke="white" stroke-width="4" stroke-linecap="round"/>
<path d="M1.5 4.22144C2.32321 4.59562 3.14642 4.96981 3.73888 5.2187C4.33134 5.46759 4.6681 5.57984 5.12848 5.80889" stroke="white" stroke-width="3" stroke-linecap="round"/>
<path d="M6.26172 1.50024L6.82868 2.52075" stroke="white" stroke-width="3" stroke-linecap="round"/>
<path d="M118.598 2.47876C118.56 2.85294 118.523 3.22713 118.504 3.58827C118.484 3.94942 118.484 4.28618 118.484 4.63316" stroke="white" stroke-width="3" stroke-linecap="round"/>
<path d="M124.842 4.23901C124.842 4.25809 124.842 4.27716 124.441 4.52539C124.04 4.77363 123.239 5.25045 122.414 5.85732" stroke="white" stroke-width="3" stroke-linecap="round"/>
</svg>
