<svg width="75" height="75" viewBox="0 0 75 75" fill="none" xmlns="http://www.w3.org/2000/svg">
<g clip-path="url(#clip0_6491_28376)">
<mask id="path-1-inside-1_6491_28376" fill="white">
<path fill-rule="evenodd" clip-rule="evenodd" d="M50.1979 13.0856C52.7151 4.74142 57.9058 -1.21742 62.7467 0.21158C67.5875 1.64076 69.4709 9.56371 66.9537 17.9079C65.7122 22.0233 63.6379 25.6544 61.275 28.1081C67.5714 32.311 71.9788 39.0709 73.9029 49.5182C76.567 72.8862 56.8452 74.1442 36.736 74.1442C16.6269 74.1442 -0.586187 72.1832 0.0142761 49.6061C0.233242 41.3751 5.14346 32.6443 14.0358 27.2594C12.0175 24.8581 10.2739 21.6029 9.17834 17.9713C6.66117 9.62707 8.54543 1.70407 13.3863 0.275056C18.2272 -1.15357 23.4171 4.80501 25.9342 13.1491C26.9216 16.4221 27.3434 19.6917 27.2028 22.5436C29.6802 22.1503 32.3125 21.9657 35.0934 22.0212C40.0822 22.0212 44.7386 22.3778 48.9811 23.2458C48.7158 20.2216 49.121 16.6555 50.1979 13.0856Z"/>
</mask>
<path fill-rule="evenodd" clip-rule="evenodd" d="M50.1979 13.0856C52.7151 4.74142 57.9058 -1.21742 62.7467 0.21158C67.5875 1.64076 69.4709 9.56371 66.9537 17.9079C65.7122 22.0233 63.6379 25.6544 61.275 28.1081C67.5714 32.311 71.9788 39.0709 73.9029 49.5182C76.567 72.8862 56.8452 74.1442 36.736 74.1442C16.6269 74.1442 -0.586187 72.1832 0.0142761 49.6061C0.233242 41.3751 5.14346 32.6443 14.0358 27.2594C12.0175 24.8581 10.2739 21.6029 9.17834 17.9713C6.66117 9.62707 8.54543 1.70407 13.3863 0.275056C18.2272 -1.15357 23.4171 4.80501 25.9342 13.1491C26.9216 16.4221 27.3434 19.6917 27.2028 22.5436C29.6802 22.1503 32.3125 21.9657 35.0934 22.0212C40.0822 22.0212 44.7386 22.3778 48.9811 23.2458C48.7158 20.2216 49.121 16.6555 50.1979 13.0856Z" fill="white"/>
<path d="M50.1979 13.0856L48.6794 12.6275V12.6275L50.1979 13.0856ZM62.7467 0.21158L63.1958 -1.30952L63.1957 -1.30954L62.7467 0.21158ZM66.9537 17.9079L68.4722 18.3659L68.4722 18.3659L66.9537 17.9079ZM61.275 28.1081L60.1326 27.0079L58.8169 28.3741L60.3945 29.4272L61.275 28.1081ZM73.9029 49.5182L75.4788 49.3386L75.4726 49.2845L75.4627 49.231L73.9029 49.5182ZM36.736 74.1442V75.7302V75.7302V74.1442ZM0.0142761 49.6061L-1.57118 49.5639L-1.57118 49.5639L0.0142761 49.6061ZM14.0358 27.2594L14.8573 28.6161L16.4415 27.6567L15.2499 26.239L14.0358 27.2594ZM9.17834 17.9713L7.65991 18.4294L7.65992 18.4294L9.17834 17.9713ZM13.3863 0.275056L12.9374 -1.2461L12.9373 -1.24607L13.3863 0.275056ZM25.9342 13.1491L27.4526 12.691V12.691L25.9342 13.1491ZM27.2028 22.5436L25.6187 22.4655L25.5225 24.4162L27.4514 24.11L27.2028 22.5436ZM35.0934 22.0212L35.0618 23.6068L35.0776 23.6072H35.0934V22.0212ZM48.9811 23.2458L48.6632 24.7996L50.7469 25.2259L50.561 23.1072L48.9811 23.2458ZM50.1979 13.0856L51.7163 13.5437C52.9256 9.53497 54.7511 6.19888 56.7554 4.07112C58.7869 1.91437 60.7083 1.26353 62.2977 1.7327L62.7467 0.21158L63.1957 -1.30954C59.9442 -2.26938 56.8498 -0.65529 54.4464 1.89618C52.0158 4.47663 49.9873 8.29205 48.6794 12.6275L50.1979 13.0856ZM62.7467 0.21158L62.2976 1.73268C63.9443 2.21885 65.3701 3.90457 66.0664 6.83343C66.752 9.71728 66.628 13.4962 65.4353 17.4498L66.9537 17.9079L68.4722 18.3659C69.7966 13.9754 69.9895 9.62074 69.1524 6.09979C68.3261 2.62383 66.3899 -0.366509 63.1958 -1.30952L62.7467 0.21158ZM66.9537 17.9079L65.4353 17.4498C64.2541 21.3653 62.2936 24.7639 60.1326 27.0079L61.275 28.1081L62.4174 29.2082C64.9821 26.545 67.1703 22.6813 68.4722 18.3659L66.9537 17.9079ZM61.275 28.1081L60.3945 29.4272C66.2645 33.3455 70.4801 39.6895 72.3432 49.8055L73.9029 49.5182L75.4627 49.231C73.4776 38.4523 68.8783 31.2765 62.1556 26.7889L61.275 28.1081ZM73.9029 49.5182L72.3271 49.6979C72.9688 55.3263 72.2422 59.4436 70.6433 62.4867C69.053 65.5136 66.5122 67.6448 63.2026 69.1506C56.4588 72.219 46.8607 72.5582 36.736 72.5582V74.1442V75.7302C46.7205 75.7302 57.038 75.4404 64.5163 72.0378C68.3178 70.3081 71.4647 67.7433 73.4514 63.9621C75.4295 60.1971 76.1691 55.3941 75.4788 49.3386L73.9029 49.5182ZM36.736 74.1442L36.736 72.5582C26.6359 72.5582 17.6716 72.0444 11.3084 68.9181C8.18367 67.3828 5.72454 65.2322 4.06124 62.2018C2.38851 59.1542 1.45484 55.096 1.59973 49.6483L0.0142761 49.6061L-1.57118 49.5639C-1.72652 55.4048 -0.733733 60.0581 1.28052 63.728C3.30419 67.4151 6.29256 69.9879 9.90965 71.765C17.0302 75.2635 26.7269 75.7302 36.736 75.7302V74.1442ZM0.0142761 49.6061L1.59973 49.6483C1.80304 42.0058 6.38328 33.7476 14.8573 28.6161L14.0358 27.2594L13.2142 25.9028C3.90363 31.5409 -1.33655 40.7444 -1.57118 49.5639L0.0142761 49.6061ZM14.0358 27.2594L15.2499 26.239C13.3857 24.0211 11.7375 20.9632 10.6968 17.5133L9.17834 17.9713L7.65992 18.4294C8.81029 22.2426 10.6492 25.6952 12.8216 28.2799L14.0358 27.2594ZM9.17834 17.9713L10.6968 17.5133C9.5041 13.5597 9.38027 9.78074 10.066 6.8969C10.7625 3.96806 12.1886 2.2823 13.8354 1.79618L13.3863 0.275056L12.9373 -1.24607C9.74319 -0.303179 7.80666 2.68707 6.98007 6.16305C6.14279 9.68403 6.33541 14.0387 7.65991 18.4294L9.17834 17.9713ZM13.3863 0.275056L13.8353 1.79621C15.4246 1.32716 17.3458 1.97803 19.3771 4.13473C21.3812 6.26245 23.2065 9.59846 24.4158 13.6071L25.9342 13.1491L27.4526 12.691C26.1448 8.35563 24.1166 4.54031 21.6862 1.95989C19.2831 -0.591569 16.1889 -2.20567 12.9374 -1.2461L13.3863 0.275056ZM25.9342 13.1491L24.4158 13.6071C25.3577 16.7295 25.7492 19.8173 25.6187 22.4655L27.2028 22.5436L28.7868 22.6217C28.9375 19.5662 28.4854 16.1147 27.4526 12.691L25.9342 13.1491ZM27.2028 22.5436L27.4514 24.11C29.8328 23.732 32.3712 23.5532 35.0618 23.6068L35.0934 22.0212L35.125 20.4355C32.2538 20.3782 29.5277 20.5687 26.9541 20.9772L27.2028 22.5436ZM35.0934 22.0212V23.6072C40.0117 23.6072 44.5557 23.9592 48.6632 24.7996L48.9811 23.2458L49.299 21.6919C44.9215 20.7963 40.1527 20.4351 35.0934 20.4351V22.0212ZM48.9811 23.2458L50.561 23.1072C50.3161 20.3147 50.688 16.9522 51.7163 13.5437L50.1979 13.0856L48.6794 12.6275C47.5539 16.3588 47.1156 20.1286 47.4011 23.3843L48.9811 23.2458Z" fill="black" mask="url(#path-1-inside-1_6491_28376)"/>
<path d="M62.8008 14.5124C61.4438 19.0057 58.1298 23.7462 55.8336 23.0692C53.5375 22.3921 53.4937 16.7285 54.8507 12.2352C56.2077 7.74186 58.8041 4.47351 61.1003 5.15056C63.3964 5.82761 64.1578 10.019 62.8008 14.5124Z" fill="#181818"/>
<path d="M12.8828 15.1083C14.2398 19.6016 17.5538 24.3421 19.85 23.6651C22.1461 22.9881 22.1898 17.3245 20.8329 12.8311C19.4759 8.33781 16.8795 5.06946 14.5833 5.74651C12.2872 6.42355 11.5258 10.615 12.8828 15.1083Z" fill="#181818"/>
<ellipse cx="25.8862" cy="45.9373" rx="3.11176" ry="3.07476" fill="black"/>
<ellipse cx="47.9448" cy="45.9373" rx="3.11176" ry="3.07476" fill="black"/>
<ellipse cx="57.8171" cy="54.4539" rx="3.73411" ry="2.10841" fill="#FFCCB5"/>
<ellipse cx="16.7146" cy="54.4539" rx="3.73411" ry="2.10841" fill="#FFCCB5"/>
<path d="M32.9004 54.4364L32.966 54.5253C33.9702 55.8869 35.94 56.0614 37.1679 54.8976M37.1679 54.8976V53.3987M37.1679 54.8976L37.3131 55.0209C38.6098 56.1227 40.5768 55.8497 41.5244 54.4364" stroke="black" stroke-width="1.26881" stroke-linecap="round"/>
<path d="M37.8433 53.2592C37.5279 53.6144 36.973 53.6144 36.6575 53.2592L35.4966 51.952C35.0423 51.4405 35.4054 50.6324 36.0895 50.6324H38.4114C39.0955 50.6324 39.4586 51.4405 39.0043 51.952L37.8433 53.2592Z" fill="black"/>
<path d="M39.4454 13.8302C46.7177 14.6681 50.8126 18.0791 53.1103 21.6023C55.2976 24.9564 55.8832 28.4606 55.9207 30.0635C55.7985 30.0515 55.6465 30.0306 55.4625 29.9901C54.4373 29.7647 52.9412 29.1704 51.0361 28.4054C47.3709 26.9335 42.4041 24.9146 37.9076 24.7863C34.6064 24.4163 30.8955 24.6586 28.0475 24.7226C26.5758 24.7557 25.3605 24.7418 24.4644 24.6074C24.0181 24.5405 23.712 24.4521 23.5163 24.3602C23.486 24.3459 23.4611 24.3305 23.4393 24.3181C23.4593 23.5653 23.7702 22.6052 24.4476 21.5191C25.2165 20.2862 26.3953 18.9932 27.8949 17.8218C30.8901 15.4822 35.0344 13.7286 39.4454 13.8302Z" fill="#2F2C2D" stroke="black" stroke-width="2.27443"/>
<path d="M34.5044 24.3179C42.1116 24.2366 47.585 25.8379 51.1208 27.5476C52.8925 28.4042 54.1702 29.2849 54.9857 29.9872C55.0763 30.0652 55.1601 30.1407 55.2378 30.2126C55.1547 30.2235 55.0672 30.2361 54.9751 30.2468C53.8046 30.3826 52.1166 30.4702 50.0954 30.5181C46.0641 30.6137 40.8268 30.5479 36.0199 30.4236C31.1743 30.2982 26.9031 30.26 23.8097 30.1213C22.2605 30.0518 21.0678 29.9593 20.279 29.8287C20.0964 29.7985 19.9516 29.7675 19.8388 29.7401C19.8384 29.7376 19.8384 29.7349 19.838 29.7323C19.8276 29.6674 19.8171 29.6026 19.807 29.5352C19.7668 29.2665 19.7334 28.9736 19.7378 28.661C19.7462 28.0525 19.8959 27.3758 20.4636 26.7328C21.0481 26.071 22.1798 25.3267 24.3875 24.8181C26.5958 24.3093 29.8034 24.0559 34.4293 24.3159L34.4663 24.3179L34.5044 24.3179Z" fill="#221E1F" stroke="black" stroke-width="2.27443"/>
<path d="M38.759 22.0605H37.8365L36.5062 20.0776L36.0857 20.4102V22.0605H35.2825V17.58H36.0857V19.6885C36.1694 19.5839 36.2551 19.4772 36.343 19.3685C36.4309 19.2597 36.5187 19.1509 36.6066 19.0422L37.8177 17.58H38.7276L37.0835 19.5505L38.759 22.0605ZM40.9519 22.0605H40.1487V18.2578H38.8623V17.58H42.2383V18.2578H40.9519V22.0605Z" fill="#D7D7D7"/>
</g>
<defs>
<clipPath id="clip0_6491_28376">
<rect width="74.1442" height="74.1442" fill="white"/>
</clipPath>
</defs>
</svg>
