<svg width="242" height="101" viewBox="0 0 242 101" fill="none" xmlns="http://www.w3.org/2000/svg">
<mask id="path-1-outside-1_6619_7173" maskUnits="userSpaceOnUse" x="30.4844" y="19" width="178" height="66" fill="black">
<rect fill="white" x="30.4844" y="19" width="178" height="66"/>
<path d="M38.5222 79L49.7601 25.8622H65.24C68.6138 25.8622 71.5659 26.2591 74.0963 27.0529C76.6267 27.8468 78.5865 29.112 79.9757 30.8485C81.3649 32.585 82.0595 34.8673 82.0595 37.6954C82.0595 40.1265 81.5882 42.26 80.6455 44.0957C79.7524 45.9315 78.4376 47.4696 76.7011 48.7099C75.0142 49.9007 72.9304 50.769 70.4496 51.3147V51.6124C72.8807 52.2574 74.8157 53.4482 76.2546 55.1847C77.6934 56.8716 78.4128 59.0299 78.4128 61.6595C78.4128 65.6783 77.495 68.9777 75.6592 71.5577C73.8234 74.0881 71.3179 75.9735 68.1425 77.2139C65.0167 78.4046 61.4693 79 57.5 79H38.5222ZM58.0954 69.6972C59.9312 69.6972 61.5189 69.3995 62.8585 68.8041C64.1981 68.2087 65.24 67.3156 65.9842 66.1249C66.7781 64.9341 67.175 63.4705 67.175 61.7339C67.175 59.8485 66.6292 58.4097 65.5377 57.4174C64.4462 56.3755 62.7841 55.8545 60.5514 55.8545H54.5231L51.5462 69.6972H58.0954ZM61.8166 46.9238C63.6027 46.9238 65.1408 46.7005 66.4308 46.254C67.7704 45.7578 68.7875 45.0136 69.4821 44.0213C70.2263 42.9794 70.5984 41.6646 70.5984 40.0769C70.5984 38.4396 70.0775 37.1992 69.0356 36.3558C68.0433 35.5123 66.5052 35.0906 64.4214 35.0906H58.9141L56.3837 46.9238H61.8166ZM84.6731 79L95.9109 25.8622H125.606L123.671 35.0906H105.065L102.609 46.775H119.949L117.94 56.0034H100.6L97.697 69.6972H116.303L114.368 79H84.6731ZM132.75 79L141.978 35.2394H129.177L131.187 25.8622H167.877L165.868 35.2394H153.067L143.839 79H132.75ZM154.44 79L182.274 25.8622H195.819L201.177 79H190.386L189.493 66.3481H172.301L166.05 79H154.44ZM176.841 56.8964H188.972L188.004 43.2027C187.905 41.7638 187.806 40.3002 187.707 38.8117C187.607 37.3233 187.583 35.81 187.632 34.2719H187.483C186.987 35.6115 186.442 36.9512 185.846 38.2908C185.251 39.5808 184.581 40.9948 183.837 42.5329L176.841 56.8964Z"/>
</mask>
<path d="M38.5222 79L49.7601 25.8622H65.24C68.6138 25.8622 71.5659 26.2591 74.0963 27.0529C76.6267 27.8468 78.5865 29.112 79.9757 30.8485C81.3649 32.585 82.0595 34.8673 82.0595 37.6954C82.0595 40.1265 81.5882 42.26 80.6455 44.0957C79.7524 45.9315 78.4376 47.4696 76.7011 48.7099C75.0142 49.9007 72.9304 50.769 70.4496 51.3147V51.6124C72.8807 52.2574 74.8157 53.4482 76.2546 55.1847C77.6934 56.8716 78.4128 59.0299 78.4128 61.6595C78.4128 65.6783 77.495 68.9777 75.6592 71.5577C73.8234 74.0881 71.3179 75.9735 68.1425 77.2139C65.0167 78.4046 61.4693 79 57.5 79H38.5222ZM58.0954 69.6972C59.9312 69.6972 61.5189 69.3995 62.8585 68.8041C64.1981 68.2087 65.24 67.3156 65.9842 66.1249C66.7781 64.9341 67.175 63.4705 67.175 61.7339C67.175 59.8485 66.6292 58.4097 65.5377 57.4174C64.4462 56.3755 62.7841 55.8545 60.5514 55.8545H54.5231L51.5462 69.6972H58.0954ZM61.8166 46.9238C63.6027 46.9238 65.1408 46.7005 66.4308 46.254C67.7704 45.7578 68.7875 45.0136 69.4821 44.0213C70.2263 42.9794 70.5984 41.6646 70.5984 40.0769C70.5984 38.4396 70.0775 37.1992 69.0356 36.3558C68.0433 35.5123 66.5052 35.0906 64.4214 35.0906H58.9141L56.3837 46.9238H61.8166ZM84.6731 79L95.9109 25.8622H125.606L123.671 35.0906H105.065L102.609 46.775H119.949L117.94 56.0034H100.6L97.697 69.6972H116.303L114.368 79H84.6731ZM132.75 79L141.978 35.2394H129.177L131.187 25.8622H167.877L165.868 35.2394H153.067L143.839 79H132.75ZM154.44 79L182.274 25.8622H195.819L201.177 79H190.386L189.493 66.3481H172.301L166.05 79H154.44ZM176.841 56.8964H188.972L188.004 43.2027C187.905 41.7638 187.806 40.3002 187.707 38.8117C187.607 37.3233 187.583 35.81 187.632 34.2719H187.483C186.987 35.6115 186.442 36.9512 185.846 38.2908C185.251 39.5808 184.581 40.9948 183.837 42.5329L176.841 56.8964Z" fill="white"/>
<path d="M38.5222 79L32.6521 77.7586L31.1206 85H38.5222V79ZM49.7601 25.8622V19.8622H44.8963L43.8899 24.6207L49.7601 25.8622ZM74.0963 27.0529L72.3003 32.7778L72.3003 32.7778L74.0963 27.0529ZM79.9757 30.8485L75.2905 34.5967V34.5967L79.9757 30.8485ZM80.6455 44.0957L75.3081 41.3549L75.2785 41.4126L75.2501 41.4709L80.6455 44.0957ZM76.7011 48.7099L80.1612 53.6118L80.1749 53.6021L80.1885 53.5923L76.7011 48.7099ZM70.4496 51.3147L69.1604 45.4549L64.4496 46.4913V51.3147H70.4496ZM70.4496 51.6124H64.4496V56.2282L68.911 57.4118L70.4496 51.6124ZM76.2546 55.1847L71.6344 59.0128L71.6618 59.0458L71.6896 59.0784L76.2546 55.1847ZM75.6592 71.5577L80.5157 75.0811L80.5319 75.0587L80.5479 75.0363L75.6592 71.5577ZM68.1425 77.2139L70.2785 82.8208L70.3021 82.8118L70.3256 82.8026L68.1425 77.2139ZM62.8585 68.8041L60.4216 63.3212V63.3212L62.8585 68.8041ZM65.9842 66.1249L60.9919 62.7967L60.943 62.8701L60.8962 62.9449L65.9842 66.1249ZM65.5377 57.4174L61.3948 61.7575L61.4476 61.8079L61.5017 61.857L65.5377 57.4174ZM54.5231 55.8545V49.8545H49.6763L48.6572 54.593L54.5231 55.8545ZM51.5462 69.6972L45.6803 68.4357L44.1187 75.6972H51.5462V69.6972ZM66.4308 46.254L68.3934 51.9239L68.4543 51.9028L68.5146 51.8805L66.4308 46.254ZM69.4821 44.0213L64.5997 40.5339L64.5831 40.5571L64.5667 40.5805L69.4821 44.0213ZM69.0356 36.3558L65.1497 40.9274L65.2045 40.974L65.2604 41.0192L69.0356 36.3558ZM58.9141 35.0906V29.0906H54.0614L53.0467 33.8359L58.9141 35.0906ZM56.3837 46.9238L50.5163 45.6691L48.965 52.9238H56.3837V46.9238ZM38.5222 79L44.3924 80.2414L55.6302 27.1036L49.7601 25.8622L43.8899 24.6207L32.6521 77.7586L38.5222 79ZM49.7601 25.8622V31.8622H65.24V25.8622V19.8622H49.7601V25.8622ZM65.24 25.8622V31.8622C68.162 31.8622 70.4843 32.2081 72.3003 32.7778L74.0963 27.0529L75.8923 21.328C72.6475 20.3101 69.0656 19.8622 65.24 19.8622V25.8622ZM74.0963 27.0529L72.3003 32.7778C73.9155 33.2846 74.7802 33.9587 75.2905 34.5967L79.9757 30.8485L84.6609 27.1003C82.3928 24.2652 79.3378 22.409 75.8923 21.328L74.0963 27.0529ZM79.9757 30.8485L75.2905 34.5967C75.6199 35.0084 76.0595 35.8531 76.0595 37.6954H82.0595H88.0595C88.0595 33.8815 87.11 30.1616 84.6609 27.1003L79.9757 30.8485ZM82.0595 37.6954H76.0595C76.0595 39.3425 75.7441 40.5059 75.3081 41.3549L80.6455 44.0957L85.9829 46.8366C87.4323 44.014 88.0595 40.9105 88.0595 37.6954H82.0595ZM80.6455 44.0957L75.2501 41.4709C74.8149 42.3655 74.1742 43.1415 73.2137 43.8275L76.7011 48.7099L80.1885 53.5923C82.7011 51.7976 84.69 49.4975 86.0409 46.7205L80.6455 44.0957ZM76.7011 48.7099L73.241 43.8081C72.3384 44.4453 71.0354 45.0424 69.1604 45.4549L70.4496 51.3147L71.7388 57.1746C74.8253 56.4956 77.69 55.3561 80.1612 53.6118L76.7011 48.7099ZM70.4496 51.3147H64.4496V51.6124H70.4496H76.4496V51.3147H70.4496ZM70.4496 51.6124L68.911 57.4118C70.2803 57.7751 71.0835 58.3479 71.6344 59.0128L76.2546 55.1847L80.8747 51.3566C78.548 48.5485 75.4812 46.7398 71.9882 45.8131L70.4496 51.6124ZM76.2546 55.1847L71.6896 59.0784C72.0361 59.4847 72.4128 60.1786 72.4128 61.6595H78.4128H84.4128C84.4128 57.8812 83.3507 54.2585 80.8196 51.291L76.2546 55.1847ZM78.4128 61.6595H72.4128C72.4128 64.7684 71.7099 66.7589 70.7704 68.0792L75.6592 71.5577L80.5479 75.0363C83.28 71.1966 84.4128 66.5882 84.4128 61.6595H78.4128ZM75.6592 71.5577L70.8027 68.0344C69.7027 69.5506 68.1649 70.7636 65.9594 71.6251L68.1425 77.2139L70.3256 82.8026C74.4708 81.1834 77.9442 78.6256 80.5157 75.0811L75.6592 71.5577ZM68.1425 77.2139L66.0065 71.6069C63.6772 72.4943 60.8725 73 57.5 73V79V85C62.066 85 66.3563 84.315 70.2785 82.8208L68.1425 77.2139ZM57.5 79V73H38.5222V79V85H57.5V79ZM58.0954 69.6972V75.6972C60.5655 75.6972 63.0209 75.2978 65.2953 74.287L62.8585 68.8041L60.4216 63.3212C60.0168 63.5011 59.2969 63.6972 58.0954 63.6972V69.6972ZM62.8585 68.8041L65.2953 74.287C67.6776 73.2281 69.6648 71.5567 71.0722 69.3049L65.9842 66.1249L60.8962 62.9449C60.8152 63.0746 60.7185 63.1893 60.4216 63.3212L62.8585 68.8041ZM65.9842 66.1249L70.9765 69.4531C72.5562 67.0835 73.175 64.3993 73.175 61.7339H67.175H61.175C61.175 62.5416 60.9999 62.7847 60.9919 62.7967L65.9842 66.1249ZM67.175 61.7339H73.175C73.175 58.6585 72.2439 55.4051 69.5737 52.9778L65.5377 57.4174L61.5017 61.857C61.4209 61.7836 61.3433 61.6948 61.2774 61.597C61.2121 61.5 61.1745 61.4183 61.1557 61.3687C61.1199 61.2744 61.175 61.3599 61.175 61.7339H67.175ZM65.5377 57.4174L69.6805 53.0773C67.0377 50.5546 63.5969 49.8545 60.5514 49.8545V55.8545V61.8545C61.2215 61.8545 61.5646 61.9351 61.6779 61.9706C61.766 61.9982 61.6109 61.9638 61.3948 61.7575L65.5377 57.4174ZM60.5514 55.8545V49.8545H54.5231V55.8545V61.8545H60.5514V55.8545ZM54.5231 55.8545L48.6572 54.593L45.6803 68.4357L51.5462 69.6972L57.4121 70.9586L60.389 57.116L54.5231 55.8545ZM51.5462 69.6972V75.6972H58.0954V69.6972V63.6972H51.5462V69.6972ZM61.8166 46.9238V52.9238C64.0763 52.9238 66.3114 52.6446 68.3934 51.9239L66.4308 46.254L64.4681 40.5841C63.9701 40.7565 63.1291 40.9238 61.8166 40.9238V46.9238ZM66.4308 46.254L68.5146 51.8805C70.7881 51.0385 72.8848 49.6231 74.3975 47.4621L69.4821 44.0213L64.5667 40.5805C64.5865 40.5523 64.6078 40.5271 64.6276 40.507C64.6472 40.4872 64.6584 40.4792 64.6553 40.4815C64.6496 40.4857 64.5645 40.5469 64.3469 40.6275L66.4308 46.254ZM69.4821 44.0213L74.3645 47.5087C75.9942 45.2272 76.5984 42.6114 76.5984 40.0769H70.5984H64.5984C64.5984 40.4053 64.5597 40.5718 64.5461 40.6198C64.5354 40.6576 64.5442 40.6116 64.5997 40.5339L69.4821 44.0213ZM70.5984 40.0769H76.5984C76.5984 37.071 75.5708 33.9266 72.8107 31.6923L69.0356 36.3558L65.2604 41.0192C65.1481 40.9283 65.0291 40.8091 64.9193 40.6628C64.8096 40.5166 64.7299 40.3709 64.6758 40.242C64.5681 39.9855 64.5984 39.8874 64.5984 40.0769H70.5984ZM69.0356 36.3558L72.9215 31.7841C70.3586 29.6057 67.1255 29.0906 64.4214 29.0906V35.0906V41.0906C65.0813 41.0906 65.4291 41.1598 65.5512 41.1933C65.6602 41.2232 65.4548 41.1867 65.1497 40.9274L69.0356 36.3558ZM64.4214 35.0906V29.0906H58.9141V35.0906V41.0906H64.4214V35.0906ZM58.9141 35.0906L53.0467 33.8359L50.5163 45.6691L56.3837 46.9238L62.2511 48.1785L64.7814 36.3452L58.9141 35.0906ZM56.3837 46.9238V52.9238H61.8166V46.9238V40.9238H56.3837V46.9238ZM84.6731 79L78.8029 77.7586L77.2714 85H84.6731V79ZM95.9109 25.8622V19.8622H91.0471L90.0407 24.6207L95.9109 25.8622ZM125.606 25.8622L131.478 27.0935L132.994 19.8622H125.606V25.8622ZM123.671 35.0906V41.0906H128.543L129.543 36.3219L123.671 35.0906ZM105.065 35.0906V29.0906H100.195L99.1932 33.8564L105.065 35.0906ZM102.609 46.775L96.7372 45.5408L95.2167 52.775H102.609V46.775ZM119.949 46.775L125.812 48.0515L127.396 40.775H119.949V46.775ZM117.94 56.0034V62.0034H122.774L123.803 57.2799L117.94 56.0034ZM100.6 56.0034V50.0034H95.738L94.7299 54.7593L100.6 56.0034ZM97.697 69.6972L91.8274 68.4531L90.292 75.6972H97.697V69.6972ZM116.303 69.6972L122.177 70.919L123.679 63.6972H116.303V69.6972ZM114.368 79V85H119.248L120.242 80.2218L114.368 79ZM84.6731 79L90.5432 80.2414L101.781 27.1036L95.9109 25.8622L90.0407 24.6207L78.8029 77.7586L84.6731 79ZM95.9109 25.8622V31.8622H125.606V25.8622V19.8622H95.9109V25.8622ZM125.606 25.8622L119.733 24.6309L117.798 33.8593L123.671 35.0906L129.543 36.3219L131.478 27.0935L125.606 25.8622ZM123.671 35.0906V29.0906H105.065V35.0906V41.0906H123.671V35.0906ZM105.065 35.0906L99.1932 33.8564L96.7372 45.5408L102.609 46.775L108.481 48.0091L110.937 36.3248L105.065 35.0906ZM102.609 46.775V52.775H119.949V46.775V40.775H102.609V46.775ZM119.949 46.775L114.087 45.4984L112.077 54.7268L117.94 56.0034L123.803 57.2799L125.812 48.0515L119.949 46.775ZM117.94 56.0034V50.0034H100.6V56.0034V62.0034H117.94V56.0034ZM100.6 56.0034L94.7299 54.7593L91.8274 68.4531L97.697 69.6972L103.567 70.9413L106.469 57.2475L100.6 56.0034ZM97.697 69.6972V75.6972H116.303V69.6972V63.6972H97.697V69.6972ZM116.303 69.6972L110.428 68.4753L108.493 77.7782L114.368 79L120.242 80.2218L122.177 70.919L116.303 69.6972ZM114.368 79V73H84.6731V79V85H114.368V79ZM132.75 79L126.879 77.7619L125.352 85H132.75V79ZM141.978 35.2394L147.849 36.4775L149.375 29.2394H141.978V35.2394ZM129.177 35.2394L123.31 33.9823L121.755 41.2394H129.177V35.2394ZM131.187 25.8622V19.8622H126.336L125.32 24.605L131.187 25.8622ZM167.877 25.8622L173.744 27.1193L175.299 19.8622H167.877V25.8622ZM165.868 35.2394V41.2394H170.718L171.734 36.4966L165.868 35.2394ZM153.067 35.2394V29.2394H148.2L147.196 34.0014L153.067 35.2394ZM143.839 79V85H148.705L149.709 80.2381L143.839 79ZM132.75 79L138.62 80.2381L147.849 36.4775L141.978 35.2394L136.107 34.0014L126.879 77.7619L132.75 79ZM141.978 35.2394V29.2394H129.177V35.2394V41.2394H141.978V35.2394ZM129.177 35.2394L135.044 36.4966L137.053 27.1193L131.187 25.8622L125.32 24.605L123.31 33.9823L129.177 35.2394ZM131.187 25.8622V31.8622H167.877V25.8622V19.8622H131.187V25.8622ZM167.877 25.8622L162.01 24.605L160.001 33.9823L165.868 35.2394L171.734 36.4966L173.744 27.1193L167.877 25.8622ZM165.868 35.2394V29.2394H153.067V35.2394V41.2394H165.868V35.2394ZM153.067 35.2394L147.196 34.0014L137.968 77.7619L143.839 79L149.709 80.2381L158.938 36.4775L153.067 35.2394ZM143.839 79V73H132.75V79V85H143.839V79ZM154.44 79L149.125 76.216L144.524 85H154.44V79ZM182.274 25.8622V19.8622H178.643L176.959 23.0781L182.274 25.8622ZM195.819 25.8622L201.788 25.2602L201.244 19.8622H195.819V25.8622ZM201.177 79V85H207.813L207.147 78.398L201.177 79ZM190.386 79L184.401 79.4225L184.795 85H190.386V79ZM189.493 66.3481L195.478 65.9257L195.084 60.3481H189.493V66.3481ZM172.301 66.3481V60.3481H168.573L166.922 63.6902L172.301 66.3481ZM166.05 79V85H169.777L171.429 81.6579L166.05 79ZM176.841 56.8964L171.447 54.2692L167.245 62.8964H176.841V56.8964ZM188.972 56.8964V62.8964H195.411L194.957 56.4736L188.972 56.8964ZM188.004 43.2027L182.019 43.6155L182.019 43.6255L188.004 43.2027ZM187.707 38.8117L181.72 39.2108V39.2108L187.707 38.8117ZM187.632 34.2719L193.629 34.4654L193.829 28.2719H187.632V34.2719ZM187.483 34.2719V28.2719H183.307L181.857 32.188L187.483 34.2719ZM185.846 38.2908L191.294 40.8051L191.312 40.7665L191.329 40.7276L185.846 38.2908ZM183.837 42.5329L189.231 45.1601L189.234 45.1532L189.238 45.1462L183.837 42.5329ZM154.44 79L159.755 81.784L187.589 28.6462L182.274 25.8622L176.959 23.0781L149.125 76.216L154.44 79ZM182.274 25.8622V31.8622H195.819V25.8622V19.8622H182.274V25.8622ZM195.819 25.8622L189.849 26.4641L195.207 79.602L201.177 79L207.147 78.398L201.788 25.2602L195.819 25.8622ZM201.177 79V73H190.386V79V85H201.177V79ZM190.386 79L196.371 78.5775L195.478 65.9257L189.493 66.3481L183.508 66.7706L184.401 79.4225L190.386 79ZM189.493 66.3481V60.3481H172.301V66.3481V72.3481H189.493V66.3481ZM172.301 66.3481L166.922 63.6902L160.671 76.3421L166.05 79L171.429 81.6579L177.68 69.0061L172.301 66.3481ZM166.05 79V73H154.44V79V85H166.05V79ZM176.841 56.8964V62.8964H188.972V56.8964V50.8964H176.841V56.8964ZM188.972 56.8964L194.957 56.4736L193.989 42.7798L188.004 43.2027L182.019 43.6255L182.987 57.3193L188.972 56.8964ZM188.004 43.2027L193.99 42.7898C193.891 41.3557 193.792 39.8966 193.693 38.4126L187.707 38.8117L181.72 39.2108C181.82 40.7037 181.919 42.1719 182.019 43.6155L188.004 43.2027ZM187.707 38.8117L193.693 38.4126C193.608 37.1275 193.586 35.8121 193.629 34.4654L187.632 34.2719L181.635 34.0785C181.58 35.8079 181.607 37.5191 181.72 39.2108L187.707 38.8117ZM187.632 34.2719V28.2719H187.483V34.2719V40.2719H187.632V34.2719ZM187.483 34.2719L181.857 32.188C181.406 33.4055 180.908 34.6274 180.363 35.8539L185.846 38.2908L191.329 40.7276C191.975 39.2749 192.569 37.8176 193.11 36.3558L187.483 34.2719ZM185.846 38.2908L180.398 35.7764C179.821 37.0274 179.167 38.408 178.436 39.9195L183.837 42.5329L189.238 45.1462C189.995 43.5816 190.681 42.1341 191.294 40.8051L185.846 38.2908ZM183.837 42.5329L178.442 39.9056L171.447 54.2692L176.841 56.8964L182.235 59.5237L189.231 45.1601L183.837 42.5329Z" fill="#FFD54B" mask="url(#path-1-outside-1_6619_7173)"/>
<mask id="path-3-outside-2_6619_7173" maskUnits="userSpaceOnUse" x="33" y="21" width="173" height="62" fill="black">
<rect fill="white" x="33" y="21" width="173" height="62"/>
<path d="M38.0379 79L49.2757 25.8622H64.7556C68.1295 25.8622 71.0816 26.2591 73.6119 27.0529C76.1423 27.8468 78.1021 29.112 79.4913 30.8485C80.8806 32.585 81.5752 34.8673 81.5752 37.6954C81.5752 40.1265 81.1038 42.26 80.1611 44.0957C79.2681 45.9315 77.9533 47.4696 76.2167 48.7099C74.5298 49.9007 72.446 50.769 69.9652 51.3147V51.6124C72.3964 52.2574 74.3314 53.4482 75.7702 55.1847C77.209 56.8716 77.9285 59.0299 77.9285 61.6595C77.9285 65.6783 77.0106 68.9777 75.1748 71.5577C73.3391 74.0881 70.8335 75.9735 67.6581 77.2139C64.5324 78.4046 60.9849 79 57.0157 79H38.0379ZM57.611 69.6972C59.4468 69.6972 61.0345 69.3995 62.3741 68.8041C63.7137 68.2087 64.7556 67.3156 65.4999 66.1249C66.2937 64.9341 66.6906 63.4705 66.6906 61.7339C66.6906 59.8485 66.1449 58.4097 65.0533 57.4174C63.9618 56.3755 62.2997 55.8545 60.067 55.8545H54.0388L51.0618 69.6972H57.611ZM61.3322 46.9238C63.1183 46.9238 64.6564 46.7005 65.9464 46.254C67.286 45.7578 68.3031 45.0136 68.9977 44.0213C69.742 42.9794 70.1141 41.6646 70.1141 40.0769C70.1141 38.4396 69.5931 37.1992 68.5512 36.3558C67.5589 35.5123 66.0208 35.0906 63.937 35.0906H58.4297L55.8993 46.9238H61.3322ZM84.1887 79L95.4265 25.8622H125.121L123.186 35.0906H104.581L102.125 46.775H119.465L117.456 56.0034H100.115L97.2127 69.6972H115.818L113.883 79H84.1887ZM132.265 79L141.494 35.2394H128.693L130.702 25.8622H167.393L165.383 35.2394H152.583L143.354 79H132.265ZM153.955 79L181.789 25.8622H195.334L200.693 79H189.902L189.008 66.3481H171.817L165.565 79H153.955ZM176.357 56.8964H188.488L187.52 43.2027C187.421 41.7638 187.322 40.3002 187.222 38.8117C187.123 37.3233 187.098 35.81 187.148 34.2719H186.999C186.503 35.6115 185.957 36.9512 185.362 38.2908C184.766 39.5808 184.097 40.9948 183.352 42.5329L176.357 56.8964Z"/>
</mask>
<path d="M38.0379 79L49.2757 25.8622H64.7556C68.1295 25.8622 71.0816 26.2591 73.6119 27.0529C76.1423 27.8468 78.1021 29.112 79.4913 30.8485C80.8806 32.585 81.5752 34.8673 81.5752 37.6954C81.5752 40.1265 81.1038 42.26 80.1611 44.0957C79.2681 45.9315 77.9533 47.4696 76.2167 48.7099C74.5298 49.9007 72.446 50.769 69.9652 51.3147V51.6124C72.3964 52.2574 74.3314 53.4482 75.7702 55.1847C77.209 56.8716 77.9285 59.0299 77.9285 61.6595C77.9285 65.6783 77.0106 68.9777 75.1748 71.5577C73.3391 74.0881 70.8335 75.9735 67.6581 77.2139C64.5324 78.4046 60.9849 79 57.0157 79H38.0379ZM57.611 69.6972C59.4468 69.6972 61.0345 69.3995 62.3741 68.8041C63.7137 68.2087 64.7556 67.3156 65.4999 66.1249C66.2937 64.9341 66.6906 63.4705 66.6906 61.7339C66.6906 59.8485 66.1449 58.4097 65.0533 57.4174C63.9618 56.3755 62.2997 55.8545 60.067 55.8545H54.0388L51.0618 69.6972H57.611ZM61.3322 46.9238C63.1183 46.9238 64.6564 46.7005 65.9464 46.254C67.286 45.7578 68.3031 45.0136 68.9977 44.0213C69.742 42.9794 70.1141 41.6646 70.1141 40.0769C70.1141 38.4396 69.5931 37.1992 68.5512 36.3558C67.5589 35.5123 66.0208 35.0906 63.937 35.0906H58.4297L55.8993 46.9238H61.3322ZM84.1887 79L95.4265 25.8622H125.121L123.186 35.0906H104.581L102.125 46.775H119.465L117.456 56.0034H100.115L97.2127 69.6972H115.818L113.883 79H84.1887ZM132.265 79L141.494 35.2394H128.693L130.702 25.8622H167.393L165.383 35.2394H152.583L143.354 79H132.265ZM153.955 79L181.789 25.8622H195.334L200.693 79H189.902L189.008 66.3481H171.817L165.565 79H153.955ZM176.357 56.8964H188.488L187.52 43.2027C187.421 41.7638 187.322 40.3002 187.222 38.8117C187.123 37.3233 187.098 35.81 187.148 34.2719H186.999C186.503 35.6115 185.957 36.9512 185.362 38.2908C184.766 39.5808 184.097 40.9948 183.352 42.5329L176.357 56.8964Z" fill="white"/>
<path d="M38.0379 79L34.1244 78.1724L33.1035 83H38.0379V79ZM49.2757 25.8622V21.8622H46.0332L45.3623 25.0345L49.2757 25.8622ZM73.6119 27.0529L72.4146 30.8695H72.4146L73.6119 27.0529ZM79.4913 30.8485L76.3679 33.3473V33.3473L79.4913 30.8485ZM80.1611 44.0957L76.6029 42.2685L76.5831 42.307L76.5642 42.3459L80.1611 44.0957ZM76.2167 48.7099L78.5235 51.9778L78.5326 51.9714L78.5417 51.9649L76.2167 48.7099ZM69.9652 51.3147L69.1058 47.4082L65.9652 48.0991V51.3147H69.9652ZM69.9652 51.6124H65.9652V54.6896L68.9395 55.4787L69.9652 51.6124ZM75.7702 55.1847L72.6901 57.7368L72.7083 57.7588L72.7269 57.7805L75.7702 55.1847ZM75.1748 71.5577L78.4125 73.9066L78.4233 73.8917L78.434 73.8767L75.1748 71.5577ZM67.6581 77.2139L69.0821 80.9518L69.0978 80.9458L69.1135 80.9397L67.6581 77.2139ZM62.3741 68.8041L60.7495 65.1488V65.1488L62.3741 68.8041ZM65.4999 66.1249L62.1717 63.9061L62.139 63.955L62.1079 64.0049L65.4999 66.1249ZM65.0533 57.4174L62.2914 60.3108L62.3266 60.3444L62.3626 60.3772L65.0533 57.4174ZM54.0388 55.8545V51.8545H50.8075L50.1282 55.0135L54.0388 55.8545ZM51.0618 69.6972L47.1513 68.8562L46.1102 73.6972H51.0618V69.6972ZM65.9464 46.254L67.2548 50.0339L67.2954 50.0199L67.3356 50.005L65.9464 46.254ZM68.9977 44.0213L65.7428 41.6964L65.7317 41.7119L65.7208 41.7275L68.9977 44.0213ZM68.5512 36.3558L65.9606 39.4035L65.9971 39.4346L66.0344 39.4648L68.5512 36.3558ZM58.4297 35.0906V31.0906H55.1946L54.5181 34.2541L58.4297 35.0906ZM55.8993 46.9238L51.9878 46.0874L50.9535 50.9238H55.8993V46.9238ZM38.0379 79L41.9513 79.8276L53.1891 26.6898L49.2757 25.8622L45.3623 25.0345L34.1244 78.1724L38.0379 79ZM49.2757 25.8622V29.8622H64.7556V25.8622V21.8622H49.2757V25.8622ZM64.7556 25.8622V29.8622C67.8283 29.8622 70.3605 30.2251 72.4146 30.8695L73.6119 27.0529L74.8093 23.2363C71.8026 22.2931 68.4307 21.8622 64.7556 21.8622V25.8622ZM73.6119 27.0529L72.4146 30.8695C74.3349 31.472 75.5646 32.3431 76.3679 33.3473L79.4913 30.8485L82.6148 28.3497C80.6397 25.8808 77.9498 24.2216 74.8093 23.2363L73.6119 27.0529ZM79.4913 30.8485L76.3679 33.3473C77.0505 34.2006 77.5752 35.5245 77.5752 37.6954H81.5752H85.5752C85.5752 34.2101 84.7106 30.9694 82.6148 28.3497L79.4913 30.8485ZM81.5752 37.6954H77.5752C77.5752 39.6039 77.2077 41.0906 76.6029 42.2685L80.1611 44.0957L83.7194 45.923C84.9999 43.4293 85.5752 40.6492 85.5752 37.6954H81.5752ZM80.1611 44.0957L76.5642 42.3459C75.9764 43.5541 75.1109 44.5842 73.8918 45.455L76.2167 48.7099L78.5417 51.9649C80.7956 50.3549 82.5597 48.3088 83.7581 45.8456L80.1611 44.0957ZM76.2167 48.7099L73.91 45.4421C72.7459 46.2638 71.1827 46.9512 69.1058 47.4082L69.9652 51.3147L70.8247 55.2213C73.7093 54.5867 76.3137 53.5376 78.5235 51.9778L76.2167 48.7099ZM69.9652 51.3147H65.9652V51.6124H69.9652H73.9652V51.3147H69.9652ZM69.9652 51.6124L68.9395 55.4787C70.6628 55.9359 71.8432 56.7147 72.6901 57.7368L75.7702 55.1847L78.8503 52.6326C76.8195 50.1817 74.13 48.579 70.991 47.7462L69.9652 51.6124ZM75.7702 55.1847L72.7269 57.7805C73.4375 58.6137 73.9285 59.7957 73.9285 61.6595H77.9285H81.9285C81.9285 58.2641 80.9805 55.1296 78.8135 52.5889L75.7702 55.1847ZM77.9285 61.6595H73.9285C73.9285 65.0717 73.1539 67.4985 71.9156 69.2387L75.1748 71.5577L78.434 73.8767C80.8673 70.457 81.9285 66.2849 81.9285 61.6595H77.9285ZM75.1748 71.5577L71.9371 69.2088C70.5919 71.0631 68.7315 72.5002 66.2027 73.488L67.6581 77.2139L69.1135 80.9397C72.9354 79.4467 76.0862 77.1131 78.4125 73.9066L75.1748 71.5577ZM67.6581 77.2139L66.2341 73.4759C63.6393 74.4644 60.587 75 57.0157 75V79V83C61.3827 83 65.4254 82.3448 69.0821 80.9518L67.6581 77.2139ZM57.0157 79V75H38.0379V79V83H57.0157V79ZM57.611 69.6972V73.6972C59.8697 73.6972 62.0359 73.3317 63.9987 72.4593L62.3741 68.8041L60.7495 65.1488C60.0331 65.4672 59.0239 65.6972 57.611 65.6972V69.6972ZM62.3741 68.8041L63.9987 72.4593C66.0334 71.555 67.7055 70.143 68.8918 68.2449L65.4999 66.1249L62.1079 64.0049C61.8057 64.4883 61.394 64.8624 60.7495 65.1488L62.3741 68.8041ZM65.4999 66.1249L68.8281 68.3437C70.1458 66.3671 70.6906 64.0897 70.6906 61.7339H66.6906H62.6906C62.6906 62.8512 62.4416 63.5011 62.1717 63.9061L65.4999 66.1249ZM66.6906 61.7339H70.6906C70.6906 59.0552 69.8879 56.4067 67.744 54.4576L65.0533 57.4174L62.3626 60.3772C62.4018 60.4128 62.6906 60.6419 62.6906 61.7339H66.6906ZM65.0533 57.4174L67.8152 54.524C65.6895 52.4949 62.8416 51.8545 60.067 51.8545V55.8545V59.8545C61.7578 59.8545 62.2341 60.2561 62.2914 60.3108L65.0533 57.4174ZM60.067 55.8545V51.8545H54.0388V55.8545V59.8545H60.067V55.8545ZM54.0388 55.8545L50.1282 55.0135L47.1513 68.8562L51.0618 69.6972L54.9724 70.5381L57.9493 56.6955L54.0388 55.8545ZM51.0618 69.6972V73.6972H57.611V69.6972V65.6972H51.0618V69.6972ZM61.3322 46.9238V50.9238C63.4341 50.9238 65.4368 50.6632 67.2548 50.0339L65.9464 46.254L64.638 42.474C63.876 42.7378 62.8026 42.9238 61.3322 42.9238V46.9238ZM65.9464 46.254L67.3356 50.005C69.2978 49.2783 71.0347 48.0866 72.2747 46.3152L68.9977 44.0213L65.7208 41.7275C65.5716 41.9407 65.2742 42.2374 64.5571 42.503L65.9464 46.254ZM68.9977 44.0213L72.2527 46.3463C73.5872 44.4779 74.1141 42.2958 74.1141 40.0769H70.1141H66.1141C66.1141 41.0334 65.8967 41.4808 65.7428 41.6964L68.9977 44.0213ZM70.1141 40.0769H74.1141C74.1141 37.5272 73.2553 35.0175 71.068 33.2468L68.5512 36.3558L66.0344 39.4648C66.0463 39.4744 66.043 39.4735 66.035 39.4628C66.027 39.4521 66.0281 39.4501 66.0354 39.4676C66.0504 39.5033 66.1141 39.6777 66.1141 40.0769H70.1141ZM68.5512 36.3558L71.1418 33.308C69.1025 31.5746 66.4343 31.0906 63.937 31.0906V35.0906V39.0906C64.7242 39.0906 65.258 39.1719 65.5957 39.2645C65.9247 39.3547 65.9986 39.4358 65.9606 39.4035L68.5512 36.3558ZM63.937 35.0906V31.0906H58.4297V35.0906V39.0906H63.937V35.0906ZM58.4297 35.0906L54.5181 34.2541L51.9878 46.0874L55.8993 46.9238L59.8109 47.7602L62.3413 35.927L58.4297 35.0906ZM55.8993 46.9238V50.9238H61.3322V46.9238V42.9238H55.8993V46.9238ZM84.1887 79L80.2752 78.1724L79.2543 83H84.1887V79ZM95.4265 25.8622V21.8622H92.184L91.5131 25.0345L95.4265 25.8622ZM125.121 25.8622L129.036 26.683L130.047 21.8622H125.121V25.8622ZM123.186 35.0906V39.0906H126.434L127.101 35.9114L123.186 35.0906ZM104.581 35.0906V31.0906H101.334L100.666 34.2678L104.581 35.0906ZM102.125 46.775L98.2101 45.9522L97.1964 50.775H102.125V46.775ZM119.465 46.775L123.373 47.626L124.43 42.775H119.465V46.775ZM117.456 56.0034V60.0034H120.678L121.364 56.8544L117.456 56.0034ZM100.115 56.0034V52.0034H96.8741L96.2021 55.174L100.115 56.0034ZM97.2127 69.6972L93.2996 68.8678L92.276 73.6972H97.2127V69.6972ZM115.818 69.6972L119.735 70.5117L120.736 65.6972H115.818V69.6972ZM113.883 79V83H117.137L117.8 79.8146L113.883 79ZM84.1887 79L88.1021 79.8276L99.34 26.6898L95.4265 25.8622L91.5131 25.0345L80.2752 78.1724L84.1887 79ZM95.4265 25.8622V29.8622H125.121V25.8622V21.8622H95.4265V25.8622ZM125.121 25.8622L121.206 25.0413L119.271 34.2697L123.186 35.0906L127.101 35.9114L129.036 26.683L125.121 25.8622ZM123.186 35.0906V31.0906H104.581V35.0906V39.0906H123.186V35.0906ZM104.581 35.0906L100.666 34.2678L98.2101 45.9522L102.125 46.775L106.039 47.5977L108.495 35.9134L104.581 35.0906ZM102.125 46.775V50.775H119.465V46.775V42.775H102.125V46.775ZM119.465 46.775L115.557 45.9239L113.547 55.1523L117.456 56.0034L121.364 56.8544L123.373 47.626L119.465 46.775ZM117.456 56.0034V52.0034H100.115V56.0034V60.0034H117.456V56.0034ZM100.115 56.0034L96.2021 55.174L93.2996 68.8678L97.2127 69.6972L101.126 70.5266L104.028 56.8328L100.115 56.0034ZM97.2127 69.6972V73.6972H115.818V69.6972V65.6972H97.2127V69.6972ZM115.818 69.6972L111.902 68.8826L109.967 78.1854L113.883 79L117.8 79.8146L119.735 70.5117L115.818 69.6972ZM113.883 79V75H84.1887V79V83H113.883V79ZM132.265 79L128.351 78.1746L127.334 83H132.265V79ZM141.494 35.2394L145.408 36.0648L146.425 31.2394H141.494V35.2394ZM128.693 35.2394L124.782 34.4013L123.745 39.2394H128.693V35.2394ZM130.702 25.8622V21.8622H127.469L126.791 25.024L130.702 25.8622ZM167.393 25.8622L171.304 26.7003L172.341 21.8622H167.393V25.8622ZM165.383 35.2394V39.2394H168.617L169.295 36.0775L165.383 35.2394ZM152.583 35.2394V31.2394H149.338L148.669 34.414L152.583 35.2394ZM143.354 79V83H146.599L147.268 79.8254L143.354 79ZM132.265 79L136.179 79.8254L145.408 36.0648L141.494 35.2394L137.58 34.414L128.351 78.1746L132.265 79ZM141.494 35.2394V31.2394H128.693V35.2394V39.2394H141.494V35.2394ZM128.693 35.2394L132.604 36.0775L134.614 26.7003L130.702 25.8622L126.791 25.024L124.782 34.4013L128.693 35.2394ZM130.702 25.8622V29.8622H167.393V25.8622V21.8622H130.702V25.8622ZM167.393 25.8622L163.482 25.024L161.472 34.4013L165.383 35.2394L169.295 36.0775L171.304 26.7003L167.393 25.8622ZM165.383 35.2394V31.2394H152.583V35.2394V39.2394H165.383V35.2394ZM152.583 35.2394L148.669 34.414L139.44 78.1746L143.354 79L147.268 79.8254L156.497 36.0648L152.583 35.2394ZM143.354 79V75H132.265V79V83H143.354V79ZM153.955 79L150.412 77.144L147.345 83H153.955V79ZM181.789 25.8622V21.8622H179.369L178.246 24.0061L181.789 25.8622ZM195.334 25.8622L199.314 25.4608L198.951 21.8622H195.334V25.8622ZM200.693 79V83H205.116L204.673 78.5987L200.693 79ZM189.902 79L185.911 79.2817L186.174 83H189.902V79ZM189.008 66.3481L192.999 66.0665L192.736 62.3481H189.008V66.3481ZM171.817 66.3481V62.3481H169.332L168.231 64.5762L171.817 66.3481ZM165.565 79V83H168.05L169.151 80.772L165.565 79ZM176.357 56.8964L172.76 55.145L169.959 60.8964H176.357V56.8964ZM188.488 56.8964V60.8964H192.78L192.478 56.6145L188.488 56.8964ZM187.52 43.2027L183.529 43.4779L183.53 43.4846L187.52 43.2027ZM187.222 38.8117L183.231 39.0778V39.0778L187.222 38.8117ZM187.148 34.2719L191.146 34.4009L191.279 30.2719H187.148V34.2719ZM186.999 34.2719V30.2719H184.215L183.248 32.8827L186.999 34.2719ZM185.362 38.2908L188.994 39.967L189.005 39.9412L189.017 39.9153L185.362 38.2908ZM183.352 42.5329L186.948 44.2844L186.953 44.2751L183.352 42.5329ZM153.955 79L157.499 80.856L185.333 27.7182L181.789 25.8622L178.246 24.0061L150.412 77.144L153.955 79ZM181.789 25.8622V29.8622H195.334V25.8622V21.8622H181.789V25.8622ZM195.334 25.8622L191.355 26.2635L196.713 79.4013L200.693 79L204.673 78.5987L199.314 25.4608L195.334 25.8622ZM200.693 79V75H189.902V79V83H200.693V79ZM189.902 79L193.892 78.7183L192.999 66.0665L189.008 66.3481L185.018 66.6298L185.911 79.2817L189.902 79ZM189.008 66.3481V62.3481H171.817V66.3481V70.3481H189.008V66.3481ZM171.817 66.3481L168.231 64.5762L161.979 77.228L165.565 79L169.151 80.772L175.403 68.1201L171.817 66.3481ZM165.565 79V75H153.955V79V83H165.565V79ZM176.357 56.8964V60.8964H188.488V56.8964V52.8964H176.357V56.8964ZM188.488 56.8964L192.478 56.6145L191.51 42.9208L187.52 43.2027L183.53 43.4846L184.497 57.1784L188.488 56.8964ZM187.52 43.2027L191.511 42.9275C191.412 41.4918 191.312 40.0312 191.213 38.5456L187.222 38.8117L183.231 39.0778C183.331 40.5692 183.43 42.0359 183.529 43.4779L187.52 43.2027ZM187.222 38.8117L191.213 38.5456C191.123 37.1927 191.1 35.8114 191.146 34.4009L187.148 34.2719L183.15 34.143C183.096 35.8086 183.123 37.4538 183.231 39.0778L187.222 38.8117ZM187.148 34.2719V30.2719H186.999V34.2719V38.2719H187.148V34.2719ZM186.999 34.2719L183.248 32.8827C182.782 34.1408 182.268 35.402 181.706 36.6662L185.362 38.2908L189.017 39.9153C189.646 38.5003 190.224 37.0823 190.75 35.6612L186.999 34.2719ZM185.362 38.2908L181.73 36.6145C181.147 37.8785 180.487 39.2702 179.752 40.7906L183.352 42.5329L186.953 44.2751C187.706 42.7193 188.386 41.283 188.994 39.967L185.362 38.2908ZM183.352 42.5329L179.756 40.7814L172.76 55.145L176.357 56.8964L179.953 58.6479L186.948 44.2844L183.352 42.5329Z" fill="#D00022" mask="url(#path-3-outside-2_6619_7173)"/>
</svg>
